<svg xmlns="http://www.w3.org/2000/svg" viewBox="0 0 500 300" font-family="Georgia, serif">
  <rect width="500" height="300" fill="#fafafa"/>
  <text x="250" y="22" text-anchor="middle" font-size="14" fill="#444">The Flower Grows: Each Stage Adds Petals by Fibonacci</text>
  <circle cx="55" cy="130" r="5" fill="#f59e0b"/>
  <circle cx="66" cy="143" r="4" fill="#93c5fd" opacity="0.5"/>
  <circle cx="38" cy="129" r="4" fill="#93c5fd" opacity="0.5"/>
  <circle cx="68" cy="120" r="4" fill="#93c5fd" opacity="0.5"/>
  <text x="55" y="165" text-anchor="middle" font-size="12" fill="#93c5fd" font-weight="bold">3 petals</text>
  <text x="55" y="179" text-anchor="middle" font-size="10" fill="#999">stage 0</text>
  <circle cx="150" cy="130" r="5" fill="#f59e0b"/>
  <circle cx="166" cy="147" r="4" fill="#3b82f6" opacity="0.5"/>
  <circle cx="127" cy="128" r="4" fill="#3b82f6" opacity="0.5"/>
  <circle cx="168" cy="116" r="4" fill="#3b82f6" opacity="0.5"/>
  <circle cx="146" cy="153" r="4" fill="#3b82f6" opacity="0.5"/>
  <circle cx="138" cy="111" r="4" fill="#3b82f6" opacity="0.5"/>
  <text x="150" y="171" text-anchor="middle" font-size="12" fill="#3b82f6" font-weight="bold">5 petals</text>
  <text x="150" y="185" text-anchor="middle" font-size="10" fill="#999">stage 5</text>
  <circle cx="260" cy="130" r="5" fill="#f59e0b"/>
  <circle cx="282" cy="154" r="4" fill="#dc2626" opacity="0.5"/>
  <circle cx="228" cy="127" r="4" fill="#dc2626" opacity="0.5"/>
  <circle cx="285" cy="111" r="4" fill="#dc2626" opacity="0.5"/>
  <circle cx="254" cy="162" r="4" fill="#dc2626" opacity="0.5"/>
  <circle cx="243" cy="103" r="4" fill="#dc2626" opacity="0.5"/>
  <circle cx="291" cy="138" r="4" fill="#dc2626" opacity="0.5"/>
  <circle cx="232" cy="145" r="4" fill="#dc2626" opacity="0.5"/>
  <circle cx="271" cy="100" r="4" fill="#dc2626" opacity="0.5"/>
  <text x="260" y="180" text-anchor="middle" font-size="12" fill="#dc2626" font-weight="bold">8 petals</text>
  <text x="260" y="194" text-anchor="middle" font-size="10" fill="#999">stage 7</text>
  <circle cx="380" cy="130" r="5" fill="#f59e0b"/>
  <circle cx="412" cy="165" r="4" fill="#4f46e5" opacity="0.5"/>
  <circle cx="333" cy="126" r="4" fill="#4f46e5" opacity="0.5"/>
  <circle cx="417" cy="101" r="4" fill="#4f46e5" opacity="0.5"/>
  <circle cx="372" cy="176" r="4" fill="#4f46e5" opacity="0.5"/>
  <circle cx="355" cy="90" r="4" fill="#4f46e5" opacity="0.5"/>
  <circle cx="425" cy="142" r="4" fill="#4f46e5" opacity="0.5"/>
  <circle cx="338" cy="152" r="4" fill="#4f46e5" opacity="0.5"/>
  <circle cx="396" cy="86" r="4" fill="#4f46e5" opacity="0.5"/>
  <circle cx="398" cy="173" r="4" fill="#4f46e5" opacity="0.5"/>
  <circle cx="337" cy="110" r="4" fill="#4f46e5" opacity="0.5"/>
  <circle cx="425" cy="116" r="4" fill="#4f46e5" opacity="0.5"/>
  <circle cx="356" cy="171" r="4" fill="#4f46e5" opacity="0.5"/>
  <circle cx="370" cy="84" r="4" fill="#4f46e5" opacity="0.5"/>
  <text x="380" y="195" text-anchor="middle" font-size="12" fill="#4f46e5" font-weight="bold">13 petals</text>
  <text x="380" y="209" text-anchor="middle" font-size="10" fill="#999">stage 7</text>
  <text x="100" y="135" text-anchor="middle" font-size="18" fill="#ccc">→</text>
  <text x="200" y="135" text-anchor="middle" font-size="18" fill="#ccc">→</text>
  <text x="315" y="135" text-anchor="middle" font-size="18" fill="#ccc">→</text>

  <text x="55" y="210" text-anchor="middle" font-size="10" fill="#93c5fd">2D flat</text>
  <text x="150" y="210" text-anchor="middle" font-size="10" fill="#3b82f6">2D flat</text>
  <text x="260" y="220" text-anchor="middle" font-size="10" fill="#dc2626">forced 3D</text>
  <text x="260" y="233" text-anchor="middle" font-size="10" fill="#dc2626">our universe</text>
  <text x="380" y="225" text-anchor="middle" font-size="10" fill="#4f46e5">deeper 3D</text>
  <text x="380" y="238" text-anchor="middle" font-size="10" fill="#4f46e5">dark sector</text>
  
  <text x="250" y="270" text-anchor="middle" font-size="12" fill="#555">each stage adds F(S−1) new petals: 3 → 3+2=5 → 5+3=8 → 8+5=13</text>
  <text x="250" y="290" text-anchor="middle" font-size="11" fill="#888">the universe grows the way a flower grows — one Fibonacci ring at a time</text>
</svg>